<?xml version="1.0" standalone="no"?>
<!DOCTYPE svg PUBLIC "-//W3C//DTD SVG 20010904//EN"
 "http://www.w3.org/TR/2001/REC-SVG-20010904/DTD/svg10.dtd">
<svg version="1.0" xmlns="http://www.w3.org/2000/svg"
 width="300.000000pt" height="244.000000pt" viewBox="0 0 300.000000 244.000000"
 preserveAspectRatio="xMidYMid meet">
<metadata>
Created by potrace 1.10, written by Peter Selinger 2001-2011
</metadata>
<g transform="translate(0.000000,244.000000) scale(0.100000,-0.100000)"
fill="#000000" stroke="none">
<path d="M0 1220 l0 -1220 1500 0 1500 0 0 1220 0 1220 -1500 0 -1500 0 0
-1220z m1950 1007 c0 -1 -28 -32 -62 -69 l-63 -66 -80 -7 c-44 -3 -222 -10
-395 -15 -173 -5 -334 -14 -358 -20 -60 -15 -138 -76 -327 -256 l-165 -159 1
-235 c2 -202 0 -241 -15 -280 -13 -35 -16 -62 -11 -120 6 -74 -10 -440 -21
-485 -4 -16 1 -30 16 -45 19 -19 29 -21 78 -15 198 22 449 37 817 50 231 8
430 17 442 20 17 6 24 17 29 54 3 25 10 64 14 86 5 22 8 41 6 42 -7 7 -467
-20 -566 -34 -63 -8 -232 -19 -375 -24 -143 -5 -283 -11 -311 -15 -65 -7 -67
-2 -54 119 5 51 10 211 10 357 0 146 5 283 10 304 5 25 26 57 58 90 26 28 61
67 76 86 16 19 75 83 132 142 57 58 104 109 104 112 0 4 -9 2 -21 -4 -42 -23
-28 0 43 69 44 44 81 71 94 71 12 0 27 7 34 15 16 19 31 19 24 0 -5 -12 0 -14
22 -10 70 12 378 25 588 25 l230 0 47 49 c50 52 64 56 48 14 -14 -37 -11 -53
11 -53 26 0 25 -12 -4 -39 -31 -29 -35 -80 -40 -471 -2 -157 -5 -292 -7 -300
-3 -10 3 -14 16 -13 11 1 75 4 141 5 106 3 124 1 142 -15 42 -38 51 -130 43
-429 l-3 -127 -80 -79 -79 -79 -82 -16 c-341 -67 -448 -79 -867 -92 -223 -7
-457 -18 -520 -24 -63 -6 -168 -16 -232 -22 -171 -15 -183 -5 -167 142 6 52
11 191 13 309 2 136 8 226 15 244 8 21 12 107 12 271 l-1 241 152 149 c83 83
199 199 257 259 58 60 133 127 166 149 33 22 76 53 95 68 19 15 53 33 75 39
24 7 183 15 389 21 192 5 352 11 354 14 5 5 102 7 102 2z"/>
<path d="M1828 2195 c-5 -4 -317 -15 -488 -16 -85 -1 -168 -6 -185 -11 -16 -5
-39 -11 -50 -13 -11 -1 -23 -3 -26 -4 -3 0 -23 -14 -43 -30 l-36 -29 207 4
c268 5 509 13 552 19 51 7 64 14 93 49 l28 34 -25 0 c-13 0 -25 -2 -27 -3z"/>
<path d="M1977 2003 c-15 -15 -40 -18 -170 -19 -148 -2 -456 -13 -527 -19 -19
-2 -72 -4 -117 -5 -83 -1 -159 -22 -148 -41 4 -5 1 -8 -5 -7 -6 2 -19 -7 -27
-20 l-16 -23 47 5 c224 27 865 37 892 15 12 -10 14 -33 8 -128 -6 -107 -7
-186 -5 -411 0 -47 -2 -105 -5 -130 -2 -25 -5 -118 -5 -207 0 -205 4 -200
-156 -202 -60 -1 -146 -6 -193 -11 -47 -5 -116 -12 -155 -15 -38 -4 -73 -9
-79 -12 -5 -4 -113 -8 -240 -10 -127 -2 -244 -6 -261 -9 -72 -14 -127 -16
-138 -5 -9 9 -11 113 -9 384 l4 372 -37 -36 -36 -36 -5 -104 c-3 -80 -11 -424
-15 -643 0 -27 18 -35 55 -25 57 17 81 19 312 22 126 3 240 7 254 10 23 5 111
15 200 23 60 5 312 16 388 17 81 0 92 -6 92 -58 0 -45 -26 -145 -42 -161 -15
-15 -81 -27 -138 -26 -19 0 -141 -3 -270 -8 -129 -6 -296 -12 -370 -15 -74 -3
-151 -7 -170 -10 -19 -2 -120 -9 -223 -16 l-188 -11 -25 23 c-24 23 -25 26
-22 155 2 73 6 130 9 128 4 -2 8 82 8 188 1 136 5 203 15 233 12 33 14 82 10
221 -6 210 -6 204 -14 204 -3 0 -21 -14 -38 -31 l-32 -31 0 -232 c0 -146 -4
-244 -11 -266 -7 -19 -13 -109 -14 -200 -1 -91 -5 -233 -10 -316 -8 -170 -9
-169 65 -159 19 2 76 7 125 10 207 13 340 27 343 36 2 5 8 6 13 3 29 -17 735
8 839 31 41 9 93 18 115 21 22 2 47 7 55 9 8 2 32 5 53 7 20 1 37 5 37 8 0 3
15 5 33 5 17 0 59 7 92 15 48 11 67 22 97 54 20 22 34 44 31 50 -3 5 -1 6 5 2
6 -3 22 4 35 16 22 21 25 32 28 128 8 251 5 344 -15 388 -10 23 -26 42 -35 43
-20 1 -162 0 -219 -2 -72 -2 -72 -3 -67 225 3 110 7 281 9 379 3 143 7 182 20
202 27 41 -2 63 -37 28z m217 -940 c32 -32 49 -108 49 -218 0 -101 -11 -253
-19 -266 -6 -11 -71 -28 -126 -34 -58 -7 -86 -11 -134 -19 -59 -10 -65 10 -6
23 40 9 227 41 242 41 17 0 18 344 1 407 -16 58 -31 67 -115 67 l-73 1 -7
-103 c-3 -57 -13 -151 -22 -209 -8 -58 -12 -108 -9 -112 4 -3 20 9 35 28 16
18 34 31 41 29 8 -3 -17 -34 -61 -76 -81 -78 -121 -97 -69 -33 17 22 28 44 25
50 -4 5 -2 40 4 78 15 103 20 150 26 243 8 122 12 129 93 132 84 4 95 1 125
-29z"/>
<path d="M1530 1869 c-415 -9 -556 -20 -579 -45 -24 -26 -201 -224 -226 -252
-19 -22 -20 -41 -27 -385 -4 -199 -9 -373 -10 -387 -3 -24 -1 -25 42 -22 25 1
164 6 310 11 157 5 330 18 424 30 88 12 215 21 284 21 l124 0 -2 133 c-3 313
13 858 27 893 4 10 -2 13 -18 12 -13 -1 -170 -5 -349 -9z"/>
</g>
</svg>
