<?xml version="1.0" standalone="no"?>
<!DOCTYPE svg PUBLIC "-//W3C//DTD SVG 20010904//EN"
 "http://www.w3.org/TR/2001/REC-SVG-20010904/DTD/svg10.dtd">
<svg version="1.0" xmlns="http://www.w3.org/2000/svg"
 width="300.000000pt" height="244.000000pt" viewBox="0 0 300.000000 244.000000"
 preserveAspectRatio="xMidYMid meet">
<metadata>
Created by potrace 1.10, written by Peter Selinger 2001-2011
</metadata>
<g transform="translate(0.000000,244.000000) scale(0.100000,-0.100000)"
fill="#ffffff" stroke="none">
<path d="M1848 2225 c-2 -3 -162 -9 -354 -14 -206 -6 -365 -14 -389 -21 -22
-6 -56 -24 -75 -39 -19 -15 -62 -46 -95 -68 -33 -22 -108 -89 -166 -149 -58
-60 -174 -176 -257 -259 l-152 -149 1 -241 c0 -164 -4 -250 -12 -271 -7 -18
-13 -108 -15 -244 -2 -118 -7 -257 -13 -309 -16 -147 -4 -157 167 -142 64 6
169 16 232 22 63 6 297 17 520 24 419 13 526 25 867 92 l82 16 79 79 80 79 3
127 c8 299 -1 391 -43 429 -18 16 -36 18 -142 15 -66 -1 -130 -4 -141 -5 -13
-1 -19 3 -16 13 2 8 5 143 7 300 5 391 9 442 40 471 29 27 30 39 4 39 -22 0
-25 16 -11 53 16 42 2 38 -48 -14 l-47 -49 -230 0 c-210 0 -518 -13 -588 -25
-22 -4 -27 -2 -22 10 7 19 -8 19 -24 0 -7 -8 -22 -15 -34 -15 -13 0 -50 -27
-94 -71 -71 -69 -85 -92 -43 -69 12 6 21 8 21 4 0 -3 -47 -54 -104 -112 -57
-59 -116 -123 -132 -142 -15 -19 -50 -58 -76 -86 -32 -33 -53 -65 -58 -90 -5
-21 -10 -158 -10 -304 0 -146 -5 -306 -10 -357 -13 -121 -11 -126 54 -119 28
4 168 10 311 15 143 5 312 16 375 24 99 14 559 41 566 34 2 -1 -1 -20 -6 -42
-4 -22 -11 -61 -14 -86 -5 -37 -12 -48 -29 -54 -12 -3 -211 -12 -442 -20 -368
-13 -619 -28 -817 -50 -49 -6 -59 -4 -78 15 -15 15 -20 29 -16 45 11 45 27
411 21 485 -5 58 -2 85 11 120 15 39 17 78 15 280 l-1 235 165 159 c189 180
267 241 327 256 24 6 185 15 358 20 173 5 351 12 395 15 l80 7 63 66 c34 37
62 68 62 69 0 5 -97 3 -102 -2z m4 -61 c-29 -35 -42 -42 -93 -49 -43 -6 -284
-14 -552 -19 l-207 -4 36 29 c20 16 40 30 43 30 3 1 15 3 26 4 11 2 34 8 50
13 17 5 100 10 185 11 171 1 483 12 488 16 2 1 14 3 27 3 l25 0 -28 -34z m173
-154 c3 -5 -2 -21 -11 -35 -13 -20 -17 -59 -20 -202 -2 -98 -6 -269 -9 -379
-5 -228 -5 -227 67 -225 57 2 199 3 219 2 9 -1 25 -20 35 -43 20 -44 23 -137
15 -388 -3 -96 -6 -107 -28 -128 -13 -12 -29 -19 -35 -16 -6 4 -8 3 -5 -2 3
-6 -11 -28 -31 -50 -30 -32 -49 -43 -97 -54 -33 -8 -75 -15 -92 -15 -18 0 -33
-2 -33 -5 0 -3 -17 -7 -37 -8 -21 -2 -45 -5 -53 -7 -8 -2 -33 -7 -55 -9 -22
-3 -74 -12 -115 -21 -104 -23 -810 -48 -839 -31 -5 3 -11 2 -13 -3 -3 -9 -136
-23 -343 -36 -49 -3 -106 -8 -125 -10 -74 -10 -73 -11 -65 159 5 83 9 225 10
316 1 91 7 181 14 200 7 22 11 120 11 266 l0 232 32 31 c17 17 35 31 38 31 8
0 8 6 14 -204 4 -139 2 -188 -10 -221 -10 -30 -14 -97 -15 -233 0 -106 -4
-190 -8 -188 -3 2 -7 -55 -9 -128 -3 -129 -2 -132 22 -155 l25 -23 188 11
c103 7 204 14 223 16 19 3 96 7 170 10 74 3 241 9 370 15 129 5 251 8 270 8
57 -1 123 11 138 26 16 16 42 116 42 161 0 52 -11 58 -92 58 -76 -1 -328 -12
-388 -17 -89 -8 -177 -18 -200 -23 -14 -3 -128 -7 -254 -10 -231 -3 -255 -5
-312 -22 -37 -10 -55 -2 -55 25 4 219 12 563 15 643 l5 104 36 36 37 36 -4
-372 c-2 -271 0 -375 9 -384 11 -11 66 -9 138 5 17 3 134 7 261 9 127 2 235 6
240 10 6 3 41 8 79 12 39 3 108 10 155 15 47 5 133 10 193 11 160 2 156 -3
156 202 0 89 3 182 5 207 3 25 5 83 5 130 -2 225 -1 304 5 411 6 95 4 118 -8
128 -27 22 -668 12 -892 -15 l-47 -5 16 23 c8 13 21 22 27 20 6 -1 9 2 5 7
-11 19 65 40 148 41 45 1 98 3 117 5 71 6 379 17 527 19 130 1 155 4 170 19
19 19 39 22 48 7z m-128 -144 c-14 -35 -30 -580 -27 -893 l2 -133 -124 0 c-69
0 -196 -9 -284 -21 -94 -12 -267 -25 -424 -30 -146 -5 -285 -10 -310 -11 -43
-3 -45 -2 -42 22 1 14 6 188 10 387 7 344 8 363 27 385 25 28 202 226 226 252
23 25 164 36 579 45 179 4 336 8 349 9 16 1 22 -2 18 -12z"/>
<path d="M2069 1092 c-81 -3 -85 -10 -93 -132 -6 -93 -11 -140 -26 -243 -6
-38 -8 -73 -4 -78 3 -6 -8 -28 -25 -50 -52 -64 -12 -45 69 33 44 42 69 73 61
76 -7 2 -25 -11 -41 -29 -15 -19 -31 -31 -35 -28 -3 4 1 54 9 112 9 58 19 152
22 209 l7 103 73 -1 c84 0 99 -9 115 -67 17 -63 16 -407 -1 -407 -15 0 -202
-32 -242 -41 -59 -13 -53 -33 6 -23 48 8 76 12 134 19 55 6 120 23 126 34 8
13 19 165 19 266 0 110 -17 186 -49 218 -30 30 -41 33 -125 29z"/>
</g>
</svg>
