<?xml version="1.0" standalone="no"?>
<!DOCTYPE svg PUBLIC "-//W3C//DTD SVG 20010904//EN"
 "http://www.w3.org/TR/2001/REC-SVG-20010904/DTD/svg10.dtd">
<svg version="1.0" xmlns="http://www.w3.org/2000/svg"
 width="300.000000pt" height="244.000000pt" viewBox="0 0 300.000000 244.000000"
 preserveAspectRatio="xMidYMid meet">
<metadata>
Created by potrace 1.10, written by Peter Selinger 2001-2011
</metadata>
<g transform="translate(0.000000,244.000000) scale(0.100000,-0.100000)"
fill="#000000" stroke="none">
<path d="M1859 2225 c-3 -2 -162 -9 -355 -14 -208 -6 -367 -15 -394 -22 -25
-6 -67 -29 -95 -49 -27 -20 -68 -49 -90 -64 -22 -14 -158 -143 -302 -287
l-263 -261 1 -242 c0 -200 -3 -249 -16 -286 -13 -35 -15 -64 -11 -130 6 -83
-8 -411 -20 -476 -5 -27 -1 -38 21 -60 25 -24 30 -26 88 -20 230 24 465 39
822 51 282 9 435 18 490 29 44 8 152 27 240 41 88 14 172 29 187 33 14 4 61
41 104 82 l78 75 5 130 c11 283 1 394 -41 432 -17 15 -36 18 -127 15 -58 -1
-123 -5 -145 -8 -38 -6 -39 -6 -32 22 4 16 9 153 11 304 6 384 11 432 41 461
29 27 30 39 4 39 -22 0 -25 16 -11 53 17 43 0 38 -48 -13 l-47 -50 -225 0
c-213 0 -515 -13 -588 -26 -28 -4 -33 -3 -28 10 8 20 -7 21 -23 1 -7 -8 -22
-15 -34 -15 -20 0 -175 -138 -158 -141 4 -1 15 -1 24 0 11 1 -28 -46 -91 -111
-60 -62 -119 -126 -132 -143 -12 -16 -45 -53 -72 -81 -37 -39 -51 -63 -58 -95
-4 -24 -8 -161 -9 -304 0 -143 -5 -302 -10 -353 -11 -122 -10 -125 54 -118 28
4 168 10 311 15 143 5 312 16 375 25 96 14 559 41 566 33 6 -7 -28 -172 -37
-178 -18 -11 -164 -18 -479 -24 -157 -4 -355 -12 -440 -20 -441 -40 -413 -39
-433 -14 -13 17 -17 32 -13 54 13 60 27 392 21 475 -5 69 -3 93 11 125 15 35
17 71 16 275 l-2 235 162 155 c187 178 267 243 323 260 24 6 172 15 360 20
176 5 355 12 398 16 l78 7 64 64 c36 36 65 67 65 69 0 6 -86 5 -91 -1z m-25
-53 c8 -14 -24 -38 -60 -45 -27 -5 -196 -11 -601 -21 -84 -2 -113 0 -113 9 0
7 12 17 28 23 15 6 36 14 47 18 18 7 176 13 556 22 80 2 139 0 143 -6z m176
-176 c0 -3 -5 -17 -11 -33 -8 -18 -15 -161 -19 -393 -7 -311 -6 -368 6 -388
14 -22 18 -22 141 -18 69 3 134 1 143 -4 40 -21 52 -110 44 -328 -7 -190 -8
-193 -56 -230 -16 -13 -17 -7 -12 90 3 56 7 109 10 116 2 7 -1 57 -7 110 -16
148 -46 182 -163 182 -102 0 -107 -8 -122 -176 -28 -309 -26 -297 -52 -332
-28 -37 -23 -52 10 -30 48 32 143 131 130 136 -8 2 -26 -11 -42 -29 -15 -19
-31 -31 -35 -28 -3 4 1 53 9 110 8 57 18 151 22 209 l7 105 72 0 c82 -1 98 -9
115 -61 18 -53 19 -414 1 -414 -13 0 -237 -39 -263 -45 -16 -4 -25 -11 -22
-16 10 -16 92 -11 254 17 35 6 35 6 16 -15 -24 -27 -14 -24 -291 -72 -249 -42
-424 -55 -840 -59 -77 -1 -171 -5 -210 -10 -64 -8 -296 -27 -420 -35 -68 -5
-74 7 -63 115 4 47 9 175 9 285 1 132 6 218 15 253 10 37 14 120 14 273 0 185
3 224 16 244 31 47 44 32 46 -52 4 -180 0 -301 -11 -335 -7 -20 -12 -81 -12
-135 1 -54 -4 -195 -10 -313 l-10 -215 36 -34 c32 -29 42 -32 74 -28 20 3 77
9 126 12 50 3 160 12 245 20 85 8 254 16 375 20 397 10 520 16 544 28 36 17
58 63 66 138 8 88 -7 108 -85 111 -100 3 -383 -14 -500 -29 -63 -8 -234 -19
-380 -23 -146 -5 -279 -12 -297 -15 -38 -8 -41 1 -31 100 4 39 7 191 7 339 1
281 6 322 44 345 20 13 20 10 15 -339 l-4 -351 25 -20 c20 -16 34 -19 61 -14
19 3 152 10 295 14 143 5 296 14 340 20 44 6 94 14 110 16 17 3 91 7 165 10
266 11 254 1 256 204 4 324 13 720 19 789 5 60 3 78 -11 99 l-16 26 -342 -6
c-187 -4 -387 -10 -443 -13 -110 -7 -127 0 -76 33 34 23 319 41 653 43 160 1
235 5 260 14 37 14 60 19 60 12z m-113 -138 c-15 -59 -30 -562 -27 -884 l2
-131 -169 -6 c-92 -3 -240 -15 -327 -26 -113 -15 -218 -21 -355 -21 -122 -1
-217 -6 -251 -13 -78 -18 -94 -13 -85 26 4 18 10 193 14 389 l6 357 25 28 c14
15 68 75 119 133 52 58 102 112 112 121 14 13 64 18 256 28 131 7 324 13 428
14 105 2 205 3 224 5 30 2 33 0 28 -20z"/>
</g>
</svg>
